<svg xmlns="http://www.w3.org/2000/svg" width="1280" height="800" viewBox="0 0 1280 800">
  <defs>
    <linearGradient id="g" x1="0" y1="0" x2="1" y2="1">
      <stop offset="0" stop-color="#0B0F14"/>
      <stop offset="1" stop-color="#0A1C2A"/>
    </linearGradient>
    <radialGradient id="r1" cx="20%" cy="20%" r="60%"><stop offset="0" stop-color="#00D1FF" stop-opacity="0.26"/><stop offset="1" stop-color="#00D1FF" stop-opacity="0"/></radialGradient>
    <radialGradient id="r2" cx="80%" cy="25%" r="60%"><stop offset="0" stop-color="#00FF9C" stop-opacity="0.18"/><stop offset="1" stop-color="#00FF9C" stop-opacity="0"/></radialGradient>
  </defs>
  <rect width="100%" height="100%" fill="url(#g)"/>
  <rect width="100%" height="100%" fill="url(#r1)"/>
  <rect width="100%" height="100%" fill="url(#r2)"/>
  <g opacity="0.18" stroke="#eaf2ff" stroke-width="1">
    <path d="M0 160H1280 M0 320H1280 M0 480H1280 M0 640H1280"/>
    <path d="M256 0V800 M512 0V800 M768 0V800 M1024 0V800"/>
  </g>
  <g fill="none" stroke="#00D1FF" stroke-width="2" opacity="0.72">
    <rect x="102" y="96" width="1075" height="608" rx="22"/>
    <path d="M154 224H742"/>
    <path d="M154 272H614" opacity="0.75"/>
    <path d="M154 320H691" opacity="0.5"/>
    <rect x="794" y="192" width="256" height="160" rx="14" opacity="0.7"/>
    <rect x="794" y="392" width="256" height="128" rx="14" opacity="0.45"/>
  </g>
  <text x="50%" y="50%" dominant-baseline="middle" text-anchor="middle" fill="#EAF2FF" font-family="Inter, Arial" font-size="46" font-weight="700">CONTROL PANEL</text>
  <text x="50%" y="464" dominant-baseline="middle" text-anchor="middle" fill="#9CC7D8" font-family="Inter, Arial" font-size="20">replace with your image</text>
</svg>