<svg xmlns="http://www.w3.org/2000/svg" width="240" height="240" viewBox="0 0 240 240">
  <defs>
    <linearGradient id="g" x1="0" y1="0" x2="1" y2="1">
      <stop offset="0" stop-color="#0B0F14"/>
      <stop offset="1" stop-color="#0A1C2A"/>
    </linearGradient>
    <radialGradient id="r1" cx="20%" cy="20%" r="60%"><stop offset="0" stop-color="#00D1FF" stop-opacity="0.26"/><stop offset="1" stop-color="#00D1FF" stop-opacity="0"/></radialGradient>
    <radialGradient id="r2" cx="80%" cy="25%" r="60%"><stop offset="0" stop-color="#00FF9C" stop-opacity="0.18"/><stop offset="1" stop-color="#00FF9C" stop-opacity="0"/></radialGradient>
  </defs>
  <rect width="100%" height="100%" fill="url(#g)"/>
  <rect width="100%" height="100%" fill="url(#r1)"/>
  <rect width="100%" height="100%" fill="url(#r2)"/>
  <g opacity="0.18" stroke="#eaf2ff" stroke-width="1">
    <path d="M0 48H240 M0 96H240 M0 144H240 M0 192H240"/>
    <path d="M48 0V240 M96 0V240 M144 0V240 M192 0V240"/>
  </g>
  <g fill="none" stroke="#00D1FF" stroke-width="2" opacity="0.72">
    <rect x="19" y="29" width="202" height="182" rx="22"/>
    <path d="M29 67H139"/>
    <path d="M29 82H115" opacity="0.75"/>
    <path d="M29 96H130" opacity="0.5"/>
    <rect x="149" y="58" width="48" height="48" rx="14" opacity="0.7"/>
    <rect x="149" y="118" width="48" height="38" rx="14" opacity="0.45"/>
  </g>
  <text x="50%" y="50%" dominant-baseline="middle" text-anchor="middle" fill="#EAF2FF" font-family="Inter, Arial" font-size="22" font-weight="700">MON</text>
  <text x="50%" y="139" dominant-baseline="middle" text-anchor="middle" fill="#9CC7D8" font-family="Inter, Arial" font-size="12">replace with your image</text>
</svg>